G75*
%MOIN*%
%OFA0B0*%
%FSLAX25Y25*%
%IPPOS*%
%LPD*%
%AMOC8*
5,1,8,0,0,1.08239X$1,22.5*
%
%ADD10C,0.13100*%
%ADD11C,0.08000*%
%ADD12R,0.08000X0.08000*%
%ADD13OC8,0.08000*%
%ADD14OC8,0.07400*%
%ADD15OC8,0.15600*%
%ADD16C,0.04362*%
D10*
X0026000Y0284250D03*
X0176000Y0284250D03*
D11*
X0167637Y0263845D03*
X0173514Y0255754D03*
X0181246Y0240581D03*
X0184336Y0231070D03*
X0187000Y0214250D03*
X0187000Y0204250D03*
X0184336Y0187430D03*
X0181246Y0177919D03*
X0173514Y0162746D03*
X0167637Y0154655D03*
X0155595Y0142613D03*
X0147504Y0136736D03*
X0132331Y0129004D03*
X0122820Y0125914D03*
X0113800Y0105650D03*
X0106000Y0123250D03*
X0096000Y0123250D03*
X0088200Y0105650D03*
X0088200Y0087850D03*
X0079180Y0125914D03*
X0069669Y0129004D03*
X0054496Y0136736D03*
X0046405Y0142613D03*
X0034363Y0154655D03*
X0028486Y0162746D03*
X0020754Y0177919D03*
X0017664Y0187430D03*
X0015000Y0204250D03*
X0015000Y0214250D03*
X0017664Y0231070D03*
X0020754Y0240581D03*
X0028486Y0255754D03*
X0034363Y0263845D03*
X0046405Y0275887D03*
X0054496Y0281764D03*
X0069669Y0289496D03*
X0079180Y0292586D03*
X0096000Y0295250D03*
X0106000Y0295250D03*
X0122820Y0292586D03*
X0132331Y0289496D03*
X0147504Y0281764D03*
X0155595Y0275887D03*
X0113800Y0087850D03*
D12*
X0051000Y0105500D03*
D13*
X0051000Y0085500D03*
X0051000Y0095500D03*
X0061000Y0095500D03*
X0061000Y0085500D03*
X0061000Y0105500D03*
D14*
X0131000Y0109250D03*
X0131000Y0099250D03*
X0131000Y0089250D03*
X0131000Y0079250D03*
X0161000Y0079250D03*
X0161000Y0089250D03*
X0161000Y0099250D03*
X0161000Y0109250D03*
D15*
X0143000Y0039250D03*
X0059000Y0039250D03*
D16*
X0074750Y0096750D03*
M02*
