%
M48
M72
T01C0.0236
T02C0.0320
T03C0.0400
T04C0.0787
T05C0.1250
%
T01
X7475Y9675
T02
X7918Y12591
X6967Y12900
X5450Y13674
X4641Y14261
X3436Y15466
X2849Y16275
X2075Y17792
X1766Y18743
X1500Y20425
X1500Y21425
X1766Y23107
X2075Y24058
X2849Y25575
X3436Y26384
X4641Y27589
X5450Y28176
X6967Y28950
X7918Y29259
X9600Y29525
X10600Y29525
X12282Y29259
X13233Y28950
X14750Y28176
X15559Y27589
X16764Y26384
X17351Y25575
X18125Y24058
X18434Y23107
X18700Y21425
X18700Y20425
X18434Y18743
X18125Y17792
X17351Y16275
X16764Y15466
X15559Y14261
X14750Y13674
X13233Y12900
X12282Y12591
X13100Y10925
X13100Y9925
X13100Y8925
X13100Y7925
X10600Y12325
X9600Y12325
X16100Y10925
X16100Y9925
X16100Y8925
X16100Y7925
T03
X5100Y8550
X5100Y9550
X5100Y10550
X6100Y10550
X6100Y9550
X6100Y8550
X8820Y8785
X8820Y10565
X11380Y10565
X11380Y8785
T04
X14300Y3925
X5900Y3925
T05
X2600Y28425
X17600Y28425
M30
