G75*
%MOIN*%
%OFA0B0*%
%FSLAX25Y25*%
%IPPOS*%
%LPD*%
%AMOC8*
5,1,8,0,0,1.08239X$1,22.5*
%
%ADD10C,0.07400*%
%ADD11R,0.07400X0.07400*%
%ADD12OC8,0.07400*%
%ADD13OC8,0.06800*%
%ADD14OC8,0.15000*%
%ADD15C,0.40000*%
%ADD16C,0.03200*%
%ADD17C,0.01200*%
%ADD18C,0.02400*%
%ADD19C,0.03762*%
D10*
X0079180Y0125914D03*
X0069669Y0129004D03*
X0054496Y0136736D03*
X0046405Y0142613D03*
X0034363Y0154655D03*
X0028486Y0162746D03*
X0020754Y0177919D03*
X0017664Y0187430D03*
X0015000Y0204250D03*
X0015000Y0214250D03*
X0017664Y0231070D03*
X0020754Y0240581D03*
X0028486Y0255754D03*
X0034363Y0263845D03*
X0046405Y0275887D03*
X0054496Y0281764D03*
X0069669Y0289496D03*
X0079180Y0292586D03*
X0096000Y0295250D03*
X0106000Y0295250D03*
X0122820Y0292586D03*
X0132331Y0289496D03*
X0147504Y0281764D03*
X0155595Y0275887D03*
X0167637Y0263845D03*
X0173514Y0255754D03*
X0181246Y0240581D03*
X0184336Y0231070D03*
X0187000Y0214250D03*
X0187000Y0204250D03*
X0184336Y0187430D03*
X0181246Y0177919D03*
X0173514Y0162746D03*
X0167637Y0154655D03*
X0155595Y0142613D03*
X0147504Y0136736D03*
X0132331Y0129004D03*
X0122820Y0125914D03*
X0113800Y0105650D03*
X0106000Y0123250D03*
X0096000Y0123250D03*
X0088200Y0105650D03*
X0088200Y0087850D03*
X0113800Y0087850D03*
D11*
X0051000Y0105500D03*
D12*
X0051000Y0085500D03*
X0051000Y0095500D03*
X0061000Y0095500D03*
X0061000Y0085500D03*
X0061000Y0105500D03*
D13*
X0131000Y0109250D03*
X0131000Y0099250D03*
X0131000Y0089250D03*
X0131000Y0079250D03*
X0161000Y0079250D03*
X0161000Y0089250D03*
X0161000Y0099250D03*
X0161000Y0109250D03*
D14*
X0143000Y0039250D03*
X0059000Y0039250D03*
D15*
X0101000Y0039250D03*
D16*
X0131000Y0069250D01*
X0131000Y0079250D01*
X0122400Y0079250D01*
X0113800Y0087850D01*
X0088200Y0087850D01*
X0085850Y0085500D01*
X0061000Y0085500D01*
X0088200Y0105650D02*
X0113800Y0105650D01*
X0117400Y0109250D01*
X0131000Y0109250D01*
D17*
X0121000Y0104250D02*
X0116000Y0099250D01*
X0078500Y0099250D01*
X0077250Y0100500D01*
X0056000Y0100500D01*
X0051000Y0095500D01*
X0044750Y0091750D02*
X0051000Y0085500D01*
X0044750Y0091750D02*
X0044750Y0110500D01*
X0046000Y0111750D01*
X0082100Y0111750D01*
X0088200Y0105650D01*
X0078500Y0094250D02*
X0077250Y0093000D01*
X0063500Y0093000D01*
X0061000Y0095500D01*
X0074750Y0096750D02*
X0117250Y0096750D01*
X0119750Y0094250D01*
X0156000Y0094250D01*
X0161000Y0089250D01*
X0161000Y0079250D02*
X0139750Y0079250D01*
X0134750Y0084250D01*
X0126000Y0084250D01*
X0116000Y0094250D01*
X0078500Y0094250D01*
X0121000Y0104250D02*
X0156000Y0104250D01*
X0161000Y0099250D01*
D18*
X0147504Y0136736D02*
X0132331Y0129004D01*
X0130048Y0119851D01*
X0115705Y0116407D01*
X0106000Y0123250D01*
X0187000Y0204250D01*
X0180000Y0209250D01*
X0176133Y0233662D01*
X0181246Y0240581D01*
X0184755Y0251925D01*
X0177048Y0264502D01*
X0167637Y0263845D01*
X0155595Y0275887D01*
X0147504Y0273232D02*
X0147504Y0281764D01*
X0143675Y0293005D01*
X0130048Y0298649D01*
X0122820Y0292586D01*
X0106000Y0295250D01*
X0101000Y0288250D02*
X0096000Y0295250D01*
X0086295Y0302093D01*
X0071952Y0298649D01*
X0069669Y0289496D01*
X0054496Y0281764D01*
X0046405Y0275887D02*
X0053500Y0271750D01*
X0077250Y0284250D01*
X0079180Y0292586D01*
X0101000Y0288250D02*
X0125412Y0284383D01*
X0127218Y0284383D01*
X0132331Y0289496D01*
X0147504Y0273232D02*
X0147435Y0273162D01*
X0164912Y0255685D01*
X0173514Y0255754D01*
X0121010Y0203250D01*
X0026000Y0203250D01*
X0015000Y0214250D01*
X0007000Y0209250D02*
X0008157Y0223955D01*
X0017664Y0231070D01*
X0025867Y0233662D01*
X0037088Y0255685D01*
X0034363Y0263845D01*
X0024952Y0264502D02*
X0028486Y0255754D01*
X0020754Y0240581D01*
X0024952Y0264502D02*
X0034532Y0275718D01*
X0046405Y0275887D01*
X0007000Y0209250D02*
X0015000Y0204250D01*
X0017664Y0187430D01*
X0026000Y0183165D02*
X0020754Y0177919D01*
X0017245Y0166575D01*
X0024952Y0153998D01*
X0034363Y0154655D01*
X0046405Y0142613D01*
X0054565Y0145338D02*
X0054496Y0136736D01*
X0058325Y0125495D01*
X0071952Y0119851D01*
X0079180Y0125914D01*
X0096000Y0123250D01*
X0101000Y0130250D02*
X0106000Y0123250D01*
X0101000Y0130250D02*
X0076588Y0134117D01*
X0069669Y0129004D01*
X0054565Y0145338D02*
X0037088Y0162815D01*
X0028486Y0162746D01*
X0026000Y0183165D02*
X0026000Y0203250D01*
X0125412Y0134117D02*
X0122820Y0125914D01*
X0125412Y0134117D02*
X0147435Y0145338D01*
X0155595Y0142613D01*
X0167468Y0142782D01*
X0177048Y0153998D01*
X0173514Y0162746D01*
X0181246Y0177919D01*
X0176133Y0184838D02*
X0184336Y0187430D01*
X0193843Y0194545D01*
X0195000Y0209250D01*
X0187000Y0214250D01*
X0184336Y0231070D01*
X0176133Y0184838D02*
X0164912Y0162815D01*
X0167637Y0154655D01*
D19*
X0074750Y0096750D03*
M02*
