G75*
%MOIN*%
%OFA0B0*%
%FSLAX25Y25*%
%IPPOS*%
%LPD*%
%AMOC8*
5,1,8,0,0,1.08239X$1,22.5*
%
%ADD10C,0.13100*%
%ADD11C,0.08000*%
%ADD12R,0.08000X0.08000*%
%ADD13OC8,0.08000*%
%ADD14OC8,0.07400*%
%ADD15OC8,0.15600*%
%ADD16C,0.40600*%
%ADD17C,0.00500*%
%ADD18C,0.04362*%
D10*
X0026000Y0284250D03*
X0176000Y0284250D03*
D11*
X0167637Y0263845D03*
X0173514Y0255754D03*
X0181246Y0240581D03*
X0184336Y0231070D03*
X0187000Y0214250D03*
X0187000Y0204250D03*
X0184336Y0187430D03*
X0181246Y0177919D03*
X0173514Y0162746D03*
X0167637Y0154655D03*
X0155595Y0142613D03*
X0147504Y0136736D03*
X0132331Y0129004D03*
X0122820Y0125914D03*
X0113800Y0105650D03*
X0106000Y0123250D03*
X0096000Y0123250D03*
X0088200Y0105650D03*
X0088200Y0087850D03*
X0079180Y0125914D03*
X0069669Y0129004D03*
X0054496Y0136736D03*
X0046405Y0142613D03*
X0034363Y0154655D03*
X0028486Y0162746D03*
X0020754Y0177919D03*
X0017664Y0187430D03*
X0015000Y0204250D03*
X0015000Y0214250D03*
X0017664Y0231070D03*
X0020754Y0240581D03*
X0028486Y0255754D03*
X0034363Y0263845D03*
X0046405Y0275887D03*
X0054496Y0281764D03*
X0069669Y0289496D03*
X0079180Y0292586D03*
X0096000Y0295250D03*
X0106000Y0295250D03*
X0122820Y0292586D03*
X0132331Y0289496D03*
X0147504Y0281764D03*
X0155595Y0275887D03*
X0113800Y0087850D03*
D12*
X0051000Y0105500D03*
D13*
X0051000Y0085500D03*
X0051000Y0095500D03*
X0061000Y0095500D03*
X0061000Y0085500D03*
X0061000Y0105500D03*
D14*
X0131000Y0109250D03*
X0131000Y0099250D03*
X0131000Y0089250D03*
X0131000Y0079250D03*
X0161000Y0079250D03*
X0161000Y0089250D03*
X0161000Y0099250D03*
X0161000Y0109250D03*
D15*
X0143000Y0039250D03*
X0059000Y0039250D03*
D16*
X0101000Y0039250D03*
D17*
X0083791Y0014734D02*
X0118209Y0014734D01*
X0118911Y0015232D02*
X0083089Y0015232D01*
X0082386Y0015731D02*
X0119614Y0015731D01*
X0119705Y0015795D02*
X0116961Y0013848D01*
X0114017Y0012221D01*
X0110908Y0010934D01*
X0107676Y0010002D01*
X0104359Y0009439D01*
X0101000Y0009250D01*
X0097641Y0009439D01*
X0094324Y0010002D01*
X0091092Y0010934D01*
X0087983Y0012221D01*
X0085039Y0013848D01*
X0082295Y0015795D01*
X0079787Y0018037D01*
X0077545Y0020545D01*
X0075598Y0023289D01*
X0073971Y0026233D01*
X0072684Y0029342D01*
X0071752Y0032574D01*
X0071189Y0035891D01*
X0071000Y0039250D01*
X0071189Y0042609D01*
X0071752Y0045926D01*
X0072684Y0049158D01*
X0073971Y0052267D01*
X0075598Y0055211D01*
X0077545Y0057955D01*
X0079787Y0060463D01*
X0082295Y0062705D01*
X0085039Y0064652D01*
X0087983Y0066279D01*
X0091092Y0067566D01*
X0094324Y0068498D01*
X0097641Y0069061D01*
X0101000Y0069250D01*
X0104359Y0069061D01*
X0107676Y0068498D01*
X0110908Y0067566D01*
X0114017Y0066279D01*
X0116961Y0064652D01*
X0119705Y0062705D01*
X0122213Y0060463D01*
X0124455Y0057955D01*
X0126402Y0055211D01*
X0128029Y0052267D01*
X0129316Y0049158D01*
X0130248Y0045926D01*
X0130811Y0042609D01*
X0131000Y0039250D01*
X0130811Y0035891D01*
X0130248Y0032574D01*
X0129316Y0029342D01*
X0128029Y0026233D01*
X0126402Y0023289D01*
X0124455Y0020545D01*
X0122213Y0018037D01*
X0119705Y0015795D01*
X0120190Y0016229D02*
X0081810Y0016229D01*
X0081252Y0016728D02*
X0120748Y0016728D01*
X0121306Y0017226D02*
X0080694Y0017226D01*
X0080136Y0017725D02*
X0121864Y0017725D01*
X0122380Y0018223D02*
X0079620Y0018223D01*
X0079175Y0018722D02*
X0122825Y0018722D01*
X0123271Y0019220D02*
X0078729Y0019220D01*
X0078284Y0019719D02*
X0123716Y0019719D01*
X0124162Y0020217D02*
X0077838Y0020217D01*
X0077424Y0020716D02*
X0124576Y0020716D01*
X0124930Y0021214D02*
X0077070Y0021214D01*
X0076717Y0021713D02*
X0125283Y0021713D01*
X0125637Y0022211D02*
X0076363Y0022211D01*
X0076009Y0022710D02*
X0125991Y0022710D01*
X0126344Y0023208D02*
X0075656Y0023208D01*
X0075367Y0023707D02*
X0126633Y0023707D01*
X0126908Y0024205D02*
X0075092Y0024205D01*
X0074816Y0024704D02*
X0127184Y0024704D01*
X0127459Y0025202D02*
X0074541Y0025202D01*
X0074265Y0025701D02*
X0127735Y0025701D01*
X0128010Y0026199D02*
X0073990Y0026199D01*
X0073779Y0026698D02*
X0128221Y0026698D01*
X0128428Y0027196D02*
X0073572Y0027196D01*
X0073366Y0027695D02*
X0128634Y0027695D01*
X0128841Y0028193D02*
X0073159Y0028193D01*
X0072953Y0028692D02*
X0129047Y0028692D01*
X0129254Y0029190D02*
X0072746Y0029190D01*
X0072583Y0029689D02*
X0129417Y0029689D01*
X0129560Y0030187D02*
X0072440Y0030187D01*
X0072296Y0030686D02*
X0129704Y0030686D01*
X0129847Y0031184D02*
X0072153Y0031184D01*
X0072009Y0031683D02*
X0129991Y0031683D01*
X0130135Y0032182D02*
X0071865Y0032182D01*
X0071734Y0032680D02*
X0130266Y0032680D01*
X0130350Y0033179D02*
X0071650Y0033179D01*
X0071565Y0033677D02*
X0130435Y0033677D01*
X0130520Y0034176D02*
X0071480Y0034176D01*
X0071395Y0034674D02*
X0130605Y0034674D01*
X0130689Y0035173D02*
X0071311Y0035173D01*
X0071226Y0035671D02*
X0130774Y0035671D01*
X0130827Y0036170D02*
X0071173Y0036170D01*
X0071145Y0036668D02*
X0130855Y0036668D01*
X0130883Y0037167D02*
X0071117Y0037167D01*
X0071089Y0037665D02*
X0130911Y0037665D01*
X0130939Y0038164D02*
X0071061Y0038164D01*
X0071033Y0038662D02*
X0130967Y0038662D01*
X0130995Y0039161D02*
X0071005Y0039161D01*
X0071023Y0039659D02*
X0130977Y0039659D01*
X0130949Y0040158D02*
X0071051Y0040158D01*
X0071079Y0040656D02*
X0130921Y0040656D01*
X0130893Y0041155D02*
X0071107Y0041155D01*
X0071135Y0041653D02*
X0130865Y0041653D01*
X0130837Y0042152D02*
X0071163Y0042152D01*
X0071196Y0042650D02*
X0130804Y0042650D01*
X0130720Y0043149D02*
X0071280Y0043149D01*
X0071365Y0043647D02*
X0130635Y0043647D01*
X0130550Y0044146D02*
X0071450Y0044146D01*
X0071534Y0044644D02*
X0130466Y0044644D01*
X0130381Y0045143D02*
X0071619Y0045143D01*
X0071704Y0045641D02*
X0130296Y0045641D01*
X0130186Y0046140D02*
X0071814Y0046140D01*
X0071957Y0046638D02*
X0130042Y0046638D01*
X0129899Y0047137D02*
X0072101Y0047137D01*
X0072245Y0047635D02*
X0129755Y0047635D01*
X0129612Y0048134D02*
X0072388Y0048134D01*
X0072532Y0048632D02*
X0129468Y0048632D01*
X0129324Y0049131D02*
X0072676Y0049131D01*
X0072879Y0049629D02*
X0129121Y0049629D01*
X0128915Y0050128D02*
X0073085Y0050128D01*
X0073292Y0050626D02*
X0128708Y0050626D01*
X0128502Y0051125D02*
X0073498Y0051125D01*
X0073705Y0051623D02*
X0128295Y0051623D01*
X0128089Y0052122D02*
X0073911Y0052122D01*
X0074167Y0052620D02*
X0127833Y0052620D01*
X0127558Y0053119D02*
X0074442Y0053119D01*
X0074718Y0053618D02*
X0127282Y0053618D01*
X0127007Y0054116D02*
X0074993Y0054116D01*
X0075269Y0054615D02*
X0126731Y0054615D01*
X0126456Y0055113D02*
X0075544Y0055113D01*
X0075883Y0055612D02*
X0126117Y0055612D01*
X0125764Y0056110D02*
X0076236Y0056110D01*
X0076590Y0056609D02*
X0125410Y0056609D01*
X0125056Y0057107D02*
X0076944Y0057107D01*
X0077297Y0057606D02*
X0124703Y0057606D01*
X0124321Y0058104D02*
X0077679Y0058104D01*
X0078124Y0058603D02*
X0123876Y0058603D01*
X0123430Y0059101D02*
X0078570Y0059101D01*
X0079015Y0059600D02*
X0122985Y0059600D01*
X0122539Y0060098D02*
X0079461Y0060098D01*
X0079936Y0060597D02*
X0122064Y0060597D01*
X0121506Y0061095D02*
X0080494Y0061095D01*
X0081052Y0061594D02*
X0120948Y0061594D01*
X0120390Y0062092D02*
X0081610Y0062092D01*
X0082167Y0062591D02*
X0119833Y0062591D01*
X0119163Y0063089D02*
X0082837Y0063089D01*
X0083539Y0063588D02*
X0118461Y0063588D01*
X0117758Y0064086D02*
X0084242Y0064086D01*
X0084945Y0064585D02*
X0117055Y0064585D01*
X0116180Y0065083D02*
X0085820Y0065083D01*
X0086722Y0065582D02*
X0115278Y0065582D01*
X0114376Y0066080D02*
X0087624Y0066080D01*
X0088707Y0066579D02*
X0113293Y0066579D01*
X0112089Y0067077D02*
X0089911Y0067077D01*
X0091124Y0067576D02*
X0110876Y0067576D01*
X0109146Y0068074D02*
X0092854Y0068074D01*
X0094766Y0068573D02*
X0107234Y0068573D01*
X0104181Y0069071D02*
X0097819Y0069071D01*
X0084494Y0014235D02*
X0117506Y0014235D01*
X0116759Y0013737D02*
X0085241Y0013737D01*
X0086143Y0013238D02*
X0115857Y0013238D01*
X0114955Y0012740D02*
X0087045Y0012740D01*
X0087947Y0012241D02*
X0114053Y0012241D01*
X0112862Y0011743D02*
X0089138Y0011743D01*
X0090342Y0011244D02*
X0111658Y0011244D01*
X0110256Y0010746D02*
X0091744Y0010746D01*
X0093474Y0010247D02*
X0108526Y0010247D01*
X0106183Y0009749D02*
X0095817Y0009749D01*
D18*
X0074750Y0096750D03*
M02*
