G75*
%MOIN*%
%OFA0B0*%
%FSLAX25Y25*%
%IPPOS*%
%LPD*%
%AMOC8*
5,1,8,0,0,1.08239X$1,22.5*
%
%ADD10C,0.00000*%
%ADD11C,0.07400*%
%ADD12R,0.07400X0.07400*%
%ADD13OC8,0.07400*%
%ADD14OC8,0.06800*%
%ADD15OC8,0.15000*%
%ADD16C,0.03200*%
%ADD17C,0.02400*%
%ADD18C,0.03762*%
%ADD19C,0.01200*%
D10*
X0031000Y0019250D02*
X0031000Y0136214D01*
X0030998Y0136344D01*
X0030992Y0136474D01*
X0030982Y0136604D01*
X0030969Y0136734D01*
X0030951Y0136863D01*
X0030929Y0136991D01*
X0030904Y0137119D01*
X0030875Y0137246D01*
X0030842Y0137372D01*
X0030805Y0137497D01*
X0030764Y0137620D01*
X0030720Y0137743D01*
X0030672Y0137864D01*
X0030620Y0137983D01*
X0030565Y0138101D01*
X0030506Y0138217D01*
X0030444Y0138332D01*
X0030378Y0138444D01*
X0030309Y0138555D01*
X0030237Y0138663D01*
X0030161Y0138769D01*
X0030083Y0138873D01*
X0030001Y0138974D01*
X0029916Y0139073D01*
X0029828Y0139169D01*
X0029737Y0139262D01*
X0001000Y0208641D02*
X0001000Y0210578D01*
X0008154Y0246542D02*
X0015694Y0264746D01*
X0015718Y0264811D01*
X0015740Y0264877D01*
X0015757Y0264944D01*
X0015770Y0265012D01*
X0015780Y0265081D01*
X0015786Y0265151D01*
X0015788Y0265220D01*
X0015786Y0265289D01*
X0015780Y0265359D01*
X0015770Y0265428D01*
X0015757Y0265496D01*
X0015740Y0265563D01*
X0015718Y0265629D01*
X0015694Y0265694D01*
X0015665Y0265758D01*
X0015633Y0265819D01*
X0015598Y0265879D01*
X0015559Y0265937D01*
X0015518Y0265993D01*
X0015473Y0266046D01*
X0015425Y0266096D01*
X0011000Y0276780D02*
X0011000Y0284250D01*
X0011004Y0284612D01*
X0011018Y0284975D01*
X0011039Y0285337D01*
X0011070Y0285698D01*
X0011109Y0286058D01*
X0011157Y0286417D01*
X0011214Y0286775D01*
X0011279Y0287132D01*
X0011353Y0287487D01*
X0011436Y0287840D01*
X0011527Y0288191D01*
X0011626Y0288539D01*
X0011734Y0288885D01*
X0011850Y0289229D01*
X0011975Y0289569D01*
X0012107Y0289906D01*
X0012248Y0290240D01*
X0012397Y0290571D01*
X0012554Y0290898D01*
X0012718Y0291221D01*
X0012890Y0291540D01*
X0013070Y0291854D01*
X0013258Y0292165D01*
X0013453Y0292470D01*
X0013655Y0292771D01*
X0013865Y0293067D01*
X0014081Y0293357D01*
X0014305Y0293643D01*
X0014535Y0293923D01*
X0014772Y0294197D01*
X0015016Y0294465D01*
X0015266Y0294728D01*
X0015522Y0294984D01*
X0015785Y0295234D01*
X0016053Y0295478D01*
X0016327Y0295715D01*
X0016607Y0295945D01*
X0016893Y0296169D01*
X0017183Y0296385D01*
X0017479Y0296595D01*
X0017780Y0296797D01*
X0018085Y0296992D01*
X0018396Y0297180D01*
X0018710Y0297360D01*
X0019029Y0297532D01*
X0019352Y0297696D01*
X0019679Y0297853D01*
X0020010Y0298002D01*
X0020344Y0298143D01*
X0020681Y0298275D01*
X0021021Y0298400D01*
X0021365Y0298516D01*
X0021711Y0298624D01*
X0022059Y0298723D01*
X0022410Y0298814D01*
X0022763Y0298897D01*
X0023118Y0298971D01*
X0023475Y0299036D01*
X0023833Y0299093D01*
X0024192Y0299141D01*
X0024552Y0299180D01*
X0024913Y0299211D01*
X0025275Y0299232D01*
X0025638Y0299246D01*
X0026000Y0299250D01*
X0033470Y0299250D01*
X0033830Y0299246D01*
X0034189Y0299233D01*
X0034548Y0299212D01*
X0034906Y0299182D01*
X0035264Y0299143D01*
X0035620Y0299096D01*
X0035976Y0299041D01*
X0036329Y0298977D01*
X0036682Y0298905D01*
X0037032Y0298824D01*
X0037380Y0298735D01*
X0037727Y0298638D01*
X0038070Y0298533D01*
X0038412Y0298419D01*
X0038750Y0298297D01*
X0039085Y0298168D01*
X0039418Y0298030D01*
X0039747Y0297885D01*
X0040072Y0297731D01*
X0040393Y0297570D01*
X0040711Y0297402D01*
X0041025Y0297226D01*
X0041334Y0297042D01*
X0041639Y0296851D01*
X0041939Y0296654D01*
X0042234Y0296448D01*
X0042524Y0296236D01*
X0042810Y0296017D01*
X0043090Y0295792D01*
X0043364Y0295560D01*
X0043633Y0295321D01*
X0043896Y0295076D01*
X0044154Y0294825D01*
X0044204Y0294777D01*
X0044257Y0294732D01*
X0044313Y0294691D01*
X0044371Y0294652D01*
X0044431Y0294617D01*
X0044492Y0294585D01*
X0044556Y0294556D01*
X0044621Y0294532D01*
X0044687Y0294510D01*
X0044754Y0294493D01*
X0044822Y0294480D01*
X0044891Y0294470D01*
X0044961Y0294464D01*
X0045030Y0294462D01*
X0045099Y0294464D01*
X0045169Y0294470D01*
X0045238Y0294480D01*
X0045306Y0294493D01*
X0045373Y0294510D01*
X0045439Y0294532D01*
X0045504Y0294556D01*
X0063951Y0302197D01*
X0099409Y0309250D02*
X0101814Y0309250D01*
X0138643Y0301924D02*
X0156532Y0294514D01*
X0156532Y0294515D02*
X0156596Y0294490D01*
X0156661Y0294470D01*
X0156727Y0294453D01*
X0156794Y0294439D01*
X0156862Y0294430D01*
X0156930Y0294424D01*
X0156998Y0294422D01*
X0157066Y0294424D01*
X0157134Y0294430D01*
X0157202Y0294439D01*
X0157269Y0294453D01*
X0157335Y0294470D01*
X0157400Y0294490D01*
X0157464Y0294515D01*
X0157526Y0294543D01*
X0157587Y0294574D01*
X0157645Y0294609D01*
X0157702Y0294646D01*
X0157757Y0294688D01*
X0157809Y0294732D01*
X0157859Y0294778D01*
X0168655Y0299250D02*
X0176000Y0299250D01*
X0176362Y0299246D01*
X0176725Y0299232D01*
X0177087Y0299211D01*
X0177448Y0299180D01*
X0177808Y0299141D01*
X0178167Y0299093D01*
X0178525Y0299036D01*
X0178882Y0298971D01*
X0179237Y0298897D01*
X0179590Y0298814D01*
X0179941Y0298723D01*
X0180289Y0298624D01*
X0180635Y0298516D01*
X0180979Y0298400D01*
X0181319Y0298275D01*
X0181656Y0298143D01*
X0181990Y0298002D01*
X0182321Y0297853D01*
X0182648Y0297696D01*
X0182971Y0297532D01*
X0183290Y0297360D01*
X0183604Y0297180D01*
X0183915Y0296992D01*
X0184220Y0296797D01*
X0184521Y0296595D01*
X0184817Y0296385D01*
X0185107Y0296169D01*
X0185393Y0295945D01*
X0185673Y0295715D01*
X0185947Y0295478D01*
X0186215Y0295234D01*
X0186478Y0294984D01*
X0186734Y0294728D01*
X0186984Y0294465D01*
X0187228Y0294197D01*
X0187465Y0293923D01*
X0187695Y0293643D01*
X0187919Y0293357D01*
X0188135Y0293067D01*
X0188345Y0292771D01*
X0188547Y0292470D01*
X0188742Y0292165D01*
X0188930Y0291854D01*
X0189110Y0291540D01*
X0189282Y0291221D01*
X0189446Y0290898D01*
X0189603Y0290571D01*
X0189752Y0290240D01*
X0189893Y0289906D01*
X0190025Y0289569D01*
X0190150Y0289229D01*
X0190266Y0288885D01*
X0190374Y0288539D01*
X0190473Y0288191D01*
X0190564Y0287840D01*
X0190647Y0287487D01*
X0190721Y0287132D01*
X0190786Y0286775D01*
X0190843Y0286417D01*
X0190891Y0286058D01*
X0190930Y0285698D01*
X0190961Y0285337D01*
X0190982Y0284975D01*
X0190996Y0284612D01*
X0191000Y0284250D01*
X0191000Y0276455D01*
X0186815Y0266351D02*
X0186758Y0266290D01*
X0186703Y0266227D01*
X0186651Y0266161D01*
X0186602Y0266093D01*
X0186557Y0266022D01*
X0186515Y0265950D01*
X0186476Y0265876D01*
X0186441Y0265800D01*
X0186410Y0265722D01*
X0186382Y0265643D01*
X0186358Y0265563D01*
X0186338Y0265482D01*
X0186321Y0265400D01*
X0186309Y0265317D01*
X0186300Y0265233D01*
X0186296Y0265150D01*
X0186295Y0265066D01*
X0186299Y0264982D01*
X0186306Y0264899D01*
X0186317Y0264816D01*
X0186332Y0264734D01*
X0186351Y0264652D01*
X0186374Y0264571D01*
X0186400Y0264492D01*
X0186430Y0264414D01*
X0194714Y0244413D01*
X0201000Y0212814D02*
X0201000Y0208641D01*
X0186814Y0266352D02*
X0187052Y0266595D01*
X0187283Y0266844D01*
X0187509Y0267098D01*
X0187729Y0267358D01*
X0187942Y0267623D01*
X0188149Y0267893D01*
X0188350Y0268167D01*
X0188544Y0268446D01*
X0188731Y0268730D01*
X0188911Y0269019D01*
X0189085Y0269311D01*
X0189251Y0269607D01*
X0189411Y0269908D01*
X0189563Y0270212D01*
X0189708Y0270520D01*
X0189845Y0270831D01*
X0189976Y0271145D01*
X0190098Y0271462D01*
X0190213Y0271782D01*
X0190321Y0272104D01*
X0190420Y0272430D01*
X0190512Y0272757D01*
X0190596Y0273086D01*
X0190672Y0273418D01*
X0190741Y0273751D01*
X0190801Y0274086D01*
X0190854Y0274422D01*
X0190898Y0274759D01*
X0190934Y0275097D01*
X0190963Y0275436D01*
X0190983Y0275775D01*
X0190995Y0276115D01*
X0190999Y0276455D01*
X0169750Y0284250D02*
X0169752Y0284408D01*
X0169758Y0284565D01*
X0169768Y0284723D01*
X0169782Y0284880D01*
X0169800Y0285036D01*
X0169821Y0285193D01*
X0169847Y0285348D01*
X0169877Y0285503D01*
X0169910Y0285657D01*
X0169948Y0285810D01*
X0169989Y0285963D01*
X0170034Y0286114D01*
X0170083Y0286264D01*
X0170136Y0286412D01*
X0170192Y0286560D01*
X0170253Y0286705D01*
X0170316Y0286850D01*
X0170384Y0286992D01*
X0170455Y0287133D01*
X0170529Y0287272D01*
X0170607Y0287409D01*
X0170689Y0287544D01*
X0170773Y0287677D01*
X0170862Y0287808D01*
X0170953Y0287936D01*
X0171048Y0288063D01*
X0171145Y0288186D01*
X0171246Y0288308D01*
X0171350Y0288426D01*
X0171457Y0288542D01*
X0171567Y0288655D01*
X0171679Y0288766D01*
X0171795Y0288873D01*
X0171913Y0288978D01*
X0172033Y0289080D01*
X0172156Y0289178D01*
X0172282Y0289274D01*
X0172410Y0289366D01*
X0172540Y0289455D01*
X0172672Y0289541D01*
X0172807Y0289623D01*
X0172944Y0289702D01*
X0173082Y0289777D01*
X0173222Y0289849D01*
X0173365Y0289917D01*
X0173508Y0289982D01*
X0173654Y0290043D01*
X0173801Y0290100D01*
X0173949Y0290154D01*
X0174099Y0290204D01*
X0174249Y0290250D01*
X0174401Y0290292D01*
X0174554Y0290331D01*
X0174708Y0290365D01*
X0174863Y0290396D01*
X0175018Y0290422D01*
X0175174Y0290445D01*
X0175331Y0290464D01*
X0175488Y0290479D01*
X0175645Y0290490D01*
X0175803Y0290497D01*
X0175961Y0290500D01*
X0176118Y0290499D01*
X0176276Y0290494D01*
X0176433Y0290485D01*
X0176591Y0290472D01*
X0176747Y0290455D01*
X0176904Y0290434D01*
X0177059Y0290410D01*
X0177214Y0290381D01*
X0177369Y0290348D01*
X0177522Y0290312D01*
X0177675Y0290271D01*
X0177826Y0290227D01*
X0177976Y0290179D01*
X0178125Y0290128D01*
X0178273Y0290072D01*
X0178419Y0290013D01*
X0178564Y0289950D01*
X0178707Y0289883D01*
X0178848Y0289813D01*
X0178987Y0289740D01*
X0179125Y0289663D01*
X0179261Y0289582D01*
X0179394Y0289498D01*
X0179525Y0289411D01*
X0179654Y0289320D01*
X0179781Y0289226D01*
X0179906Y0289129D01*
X0180027Y0289029D01*
X0180147Y0288926D01*
X0180263Y0288820D01*
X0180377Y0288711D01*
X0180489Y0288599D01*
X0180597Y0288485D01*
X0180702Y0288367D01*
X0180805Y0288247D01*
X0180904Y0288125D01*
X0181000Y0288000D01*
X0181093Y0287872D01*
X0181183Y0287743D01*
X0181269Y0287611D01*
X0181353Y0287477D01*
X0181432Y0287341D01*
X0181509Y0287203D01*
X0181581Y0287063D01*
X0181650Y0286921D01*
X0181716Y0286778D01*
X0181778Y0286633D01*
X0181836Y0286486D01*
X0181891Y0286338D01*
X0181942Y0286189D01*
X0181989Y0286038D01*
X0182032Y0285887D01*
X0182071Y0285734D01*
X0182107Y0285580D01*
X0182138Y0285426D01*
X0182166Y0285271D01*
X0182190Y0285115D01*
X0182210Y0284958D01*
X0182226Y0284801D01*
X0182238Y0284644D01*
X0182246Y0284487D01*
X0182250Y0284329D01*
X0182250Y0284171D01*
X0182246Y0284013D01*
X0182238Y0283856D01*
X0182226Y0283699D01*
X0182210Y0283542D01*
X0182190Y0283385D01*
X0182166Y0283229D01*
X0182138Y0283074D01*
X0182107Y0282920D01*
X0182071Y0282766D01*
X0182032Y0282613D01*
X0181989Y0282462D01*
X0181942Y0282311D01*
X0181891Y0282162D01*
X0181836Y0282014D01*
X0181778Y0281867D01*
X0181716Y0281722D01*
X0181650Y0281579D01*
X0181581Y0281437D01*
X0181509Y0281297D01*
X0181432Y0281159D01*
X0181353Y0281023D01*
X0181269Y0280889D01*
X0181183Y0280757D01*
X0181093Y0280628D01*
X0181000Y0280500D01*
X0180904Y0280375D01*
X0180805Y0280253D01*
X0180702Y0280133D01*
X0180597Y0280015D01*
X0180489Y0279901D01*
X0180377Y0279789D01*
X0180263Y0279680D01*
X0180147Y0279574D01*
X0180027Y0279471D01*
X0179906Y0279371D01*
X0179781Y0279274D01*
X0179654Y0279180D01*
X0179525Y0279089D01*
X0179394Y0279002D01*
X0179261Y0278918D01*
X0179125Y0278837D01*
X0178987Y0278760D01*
X0178848Y0278687D01*
X0178707Y0278617D01*
X0178564Y0278550D01*
X0178419Y0278487D01*
X0178273Y0278428D01*
X0178125Y0278372D01*
X0177976Y0278321D01*
X0177826Y0278273D01*
X0177675Y0278229D01*
X0177522Y0278188D01*
X0177369Y0278152D01*
X0177214Y0278119D01*
X0177059Y0278090D01*
X0176904Y0278066D01*
X0176747Y0278045D01*
X0176591Y0278028D01*
X0176433Y0278015D01*
X0176276Y0278006D01*
X0176118Y0278001D01*
X0175961Y0278000D01*
X0175803Y0278003D01*
X0175645Y0278010D01*
X0175488Y0278021D01*
X0175331Y0278036D01*
X0175174Y0278055D01*
X0175018Y0278078D01*
X0174863Y0278104D01*
X0174708Y0278135D01*
X0174554Y0278169D01*
X0174401Y0278208D01*
X0174249Y0278250D01*
X0174099Y0278296D01*
X0173949Y0278346D01*
X0173801Y0278400D01*
X0173654Y0278457D01*
X0173508Y0278518D01*
X0173365Y0278583D01*
X0173222Y0278651D01*
X0173082Y0278723D01*
X0172944Y0278798D01*
X0172807Y0278877D01*
X0172672Y0278959D01*
X0172540Y0279045D01*
X0172410Y0279134D01*
X0172282Y0279226D01*
X0172156Y0279322D01*
X0172033Y0279420D01*
X0171913Y0279522D01*
X0171795Y0279627D01*
X0171679Y0279734D01*
X0171567Y0279845D01*
X0171457Y0279958D01*
X0171350Y0280074D01*
X0171246Y0280192D01*
X0171145Y0280314D01*
X0171048Y0280437D01*
X0170953Y0280564D01*
X0170862Y0280692D01*
X0170773Y0280823D01*
X0170689Y0280956D01*
X0170607Y0281091D01*
X0170529Y0281228D01*
X0170455Y0281367D01*
X0170384Y0281508D01*
X0170316Y0281650D01*
X0170253Y0281795D01*
X0170192Y0281940D01*
X0170136Y0282088D01*
X0170083Y0282236D01*
X0170034Y0282386D01*
X0169989Y0282537D01*
X0169948Y0282690D01*
X0169910Y0282843D01*
X0169877Y0282997D01*
X0169847Y0283152D01*
X0169821Y0283307D01*
X0169800Y0283464D01*
X0169782Y0283620D01*
X0169768Y0283777D01*
X0169758Y0283935D01*
X0169752Y0284092D01*
X0169750Y0284250D01*
X0168655Y0299250D02*
X0168280Y0299245D01*
X0167906Y0299232D01*
X0167532Y0299209D01*
X0167158Y0299176D01*
X0166786Y0299135D01*
X0166415Y0299085D01*
X0166045Y0299025D01*
X0165676Y0298957D01*
X0165310Y0298879D01*
X0164945Y0298792D01*
X0164583Y0298697D01*
X0164223Y0298593D01*
X0163866Y0298479D01*
X0163511Y0298357D01*
X0163160Y0298227D01*
X0162812Y0298088D01*
X0162468Y0297940D01*
X0162127Y0297784D01*
X0161790Y0297620D01*
X0161458Y0297447D01*
X0161129Y0297266D01*
X0160806Y0297078D01*
X0160487Y0296881D01*
X0160173Y0296677D01*
X0159864Y0296465D01*
X0159560Y0296245D01*
X0159262Y0296018D01*
X0158969Y0295784D01*
X0158682Y0295543D01*
X0158402Y0295295D01*
X0158127Y0295040D01*
X0157859Y0294778D01*
X0194714Y0244414D02*
X0195467Y0242532D01*
X0196173Y0240632D01*
X0196832Y0238716D01*
X0197444Y0236784D01*
X0198009Y0234838D01*
X0198525Y0232878D01*
X0198994Y0230906D01*
X0199413Y0228923D01*
X0199784Y0226931D01*
X0200106Y0224930D01*
X0200379Y0222922D01*
X0200602Y0220908D01*
X0200776Y0218889D01*
X0200901Y0216866D01*
X0200975Y0214840D01*
X0201000Y0212814D01*
X0172263Y0139262D02*
X0172172Y0139169D01*
X0172084Y0139073D01*
X0171999Y0138974D01*
X0171917Y0138873D01*
X0171839Y0138769D01*
X0171763Y0138663D01*
X0171691Y0138555D01*
X0171622Y0138444D01*
X0171556Y0138332D01*
X0171494Y0138217D01*
X0171435Y0138101D01*
X0171380Y0137983D01*
X0171328Y0137864D01*
X0171280Y0137743D01*
X0171236Y0137620D01*
X0171195Y0137497D01*
X0171158Y0137372D01*
X0171125Y0137246D01*
X0171096Y0137119D01*
X0171071Y0136991D01*
X0171049Y0136863D01*
X0171031Y0136734D01*
X0171018Y0136604D01*
X0171008Y0136474D01*
X0171002Y0136344D01*
X0171000Y0136214D01*
X0171000Y0019250D01*
X0170997Y0019008D01*
X0170988Y0018767D01*
X0170974Y0018526D01*
X0170953Y0018285D01*
X0170927Y0018045D01*
X0170895Y0017805D01*
X0170857Y0017566D01*
X0170814Y0017329D01*
X0170764Y0017092D01*
X0170709Y0016857D01*
X0170649Y0016623D01*
X0170582Y0016391D01*
X0170511Y0016160D01*
X0170433Y0015931D01*
X0170350Y0015704D01*
X0170262Y0015479D01*
X0170168Y0015256D01*
X0170069Y0015036D01*
X0169964Y0014818D01*
X0169855Y0014603D01*
X0169740Y0014390D01*
X0169620Y0014180D01*
X0169495Y0013974D01*
X0169365Y0013770D01*
X0169230Y0013569D01*
X0169090Y0013372D01*
X0168946Y0013178D01*
X0168797Y0012988D01*
X0168643Y0012802D01*
X0168485Y0012619D01*
X0168323Y0012440D01*
X0168156Y0012265D01*
X0167985Y0012094D01*
X0167810Y0011927D01*
X0167631Y0011765D01*
X0167448Y0011607D01*
X0167262Y0011453D01*
X0167072Y0011304D01*
X0166878Y0011160D01*
X0166681Y0011020D01*
X0166480Y0010885D01*
X0166276Y0010755D01*
X0166070Y0010630D01*
X0165860Y0010510D01*
X0165647Y0010395D01*
X0165432Y0010286D01*
X0165214Y0010181D01*
X0164994Y0010082D01*
X0164771Y0009988D01*
X0164546Y0009900D01*
X0164319Y0009817D01*
X0164090Y0009739D01*
X0163859Y0009668D01*
X0163627Y0009601D01*
X0163393Y0009541D01*
X0163158Y0009486D01*
X0162921Y0009436D01*
X0162684Y0009393D01*
X0162445Y0009355D01*
X0162205Y0009323D01*
X0161965Y0009297D01*
X0161724Y0009276D01*
X0161483Y0009262D01*
X0161242Y0009253D01*
X0161000Y0009250D01*
X0041000Y0009250D01*
X0040758Y0009253D01*
X0040517Y0009262D01*
X0040276Y0009276D01*
X0040035Y0009297D01*
X0039795Y0009323D01*
X0039555Y0009355D01*
X0039316Y0009393D01*
X0039079Y0009436D01*
X0038842Y0009486D01*
X0038607Y0009541D01*
X0038373Y0009601D01*
X0038141Y0009668D01*
X0037910Y0009739D01*
X0037681Y0009817D01*
X0037454Y0009900D01*
X0037229Y0009988D01*
X0037006Y0010082D01*
X0036786Y0010181D01*
X0036568Y0010286D01*
X0036353Y0010395D01*
X0036140Y0010510D01*
X0035930Y0010630D01*
X0035724Y0010755D01*
X0035520Y0010885D01*
X0035319Y0011020D01*
X0035122Y0011160D01*
X0034928Y0011304D01*
X0034738Y0011453D01*
X0034552Y0011607D01*
X0034369Y0011765D01*
X0034190Y0011927D01*
X0034015Y0012094D01*
X0033844Y0012265D01*
X0033677Y0012440D01*
X0033515Y0012619D01*
X0033357Y0012802D01*
X0033203Y0012988D01*
X0033054Y0013178D01*
X0032910Y0013372D01*
X0032770Y0013569D01*
X0032635Y0013770D01*
X0032505Y0013974D01*
X0032380Y0014180D01*
X0032260Y0014390D01*
X0032145Y0014603D01*
X0032036Y0014818D01*
X0031931Y0015036D01*
X0031832Y0015256D01*
X0031738Y0015479D01*
X0031650Y0015704D01*
X0031567Y0015931D01*
X0031489Y0016160D01*
X0031418Y0016391D01*
X0031351Y0016623D01*
X0031291Y0016857D01*
X0031236Y0017092D01*
X0031186Y0017329D01*
X0031143Y0017566D01*
X0031105Y0017805D01*
X0031073Y0018045D01*
X0031047Y0018285D01*
X0031026Y0018526D01*
X0031012Y0018767D01*
X0031003Y0019008D01*
X0031000Y0019250D01*
X0029737Y0139263D02*
X0028106Y0140934D01*
X0026515Y0142643D01*
X0024965Y0144389D01*
X0023457Y0146172D01*
X0021991Y0147990D01*
X0020570Y0149843D01*
X0019193Y0151729D01*
X0017861Y0153647D01*
X0016575Y0155596D01*
X0015336Y0157575D01*
X0014145Y0159584D01*
X0013002Y0161619D01*
X0011907Y0163682D01*
X0010862Y0165770D01*
X0009866Y0167883D01*
X0008922Y0170018D01*
X0008028Y0172175D01*
X0007186Y0174353D01*
X0006396Y0176551D01*
X0005659Y0178766D01*
X0004974Y0180999D01*
X0004343Y0183247D01*
X0003766Y0185510D01*
X0003242Y0187785D01*
X0002773Y0190073D01*
X0002358Y0192371D01*
X0001999Y0194678D01*
X0001694Y0196993D01*
X0001444Y0199315D01*
X0001250Y0201642D01*
X0001111Y0203973D01*
X0001028Y0206306D01*
X0001000Y0208641D01*
X0015425Y0266096D02*
X0015174Y0266354D01*
X0014929Y0266617D01*
X0014690Y0266886D01*
X0014458Y0267160D01*
X0014233Y0267440D01*
X0014014Y0267726D01*
X0013802Y0268016D01*
X0013596Y0268311D01*
X0013399Y0268611D01*
X0013208Y0268916D01*
X0013024Y0269225D01*
X0012848Y0269539D01*
X0012680Y0269857D01*
X0012519Y0270178D01*
X0012365Y0270503D01*
X0012220Y0270832D01*
X0012082Y0271165D01*
X0011953Y0271500D01*
X0011831Y0271838D01*
X0011717Y0272180D01*
X0011612Y0272523D01*
X0011515Y0272870D01*
X0011426Y0273218D01*
X0011345Y0273568D01*
X0011273Y0273921D01*
X0011209Y0274274D01*
X0011154Y0274630D01*
X0011107Y0274986D01*
X0011068Y0275344D01*
X0011038Y0275702D01*
X0011017Y0276061D01*
X0011004Y0276420D01*
X0011000Y0276780D01*
X0019750Y0284250D02*
X0019752Y0284408D01*
X0019758Y0284565D01*
X0019768Y0284723D01*
X0019782Y0284880D01*
X0019800Y0285036D01*
X0019821Y0285193D01*
X0019847Y0285348D01*
X0019877Y0285503D01*
X0019910Y0285657D01*
X0019948Y0285810D01*
X0019989Y0285963D01*
X0020034Y0286114D01*
X0020083Y0286264D01*
X0020136Y0286412D01*
X0020192Y0286560D01*
X0020253Y0286705D01*
X0020316Y0286850D01*
X0020384Y0286992D01*
X0020455Y0287133D01*
X0020529Y0287272D01*
X0020607Y0287409D01*
X0020689Y0287544D01*
X0020773Y0287677D01*
X0020862Y0287808D01*
X0020953Y0287936D01*
X0021048Y0288063D01*
X0021145Y0288186D01*
X0021246Y0288308D01*
X0021350Y0288426D01*
X0021457Y0288542D01*
X0021567Y0288655D01*
X0021679Y0288766D01*
X0021795Y0288873D01*
X0021913Y0288978D01*
X0022033Y0289080D01*
X0022156Y0289178D01*
X0022282Y0289274D01*
X0022410Y0289366D01*
X0022540Y0289455D01*
X0022672Y0289541D01*
X0022807Y0289623D01*
X0022944Y0289702D01*
X0023082Y0289777D01*
X0023222Y0289849D01*
X0023365Y0289917D01*
X0023508Y0289982D01*
X0023654Y0290043D01*
X0023801Y0290100D01*
X0023949Y0290154D01*
X0024099Y0290204D01*
X0024249Y0290250D01*
X0024401Y0290292D01*
X0024554Y0290331D01*
X0024708Y0290365D01*
X0024863Y0290396D01*
X0025018Y0290422D01*
X0025174Y0290445D01*
X0025331Y0290464D01*
X0025488Y0290479D01*
X0025645Y0290490D01*
X0025803Y0290497D01*
X0025961Y0290500D01*
X0026118Y0290499D01*
X0026276Y0290494D01*
X0026433Y0290485D01*
X0026591Y0290472D01*
X0026747Y0290455D01*
X0026904Y0290434D01*
X0027059Y0290410D01*
X0027214Y0290381D01*
X0027369Y0290348D01*
X0027522Y0290312D01*
X0027675Y0290271D01*
X0027826Y0290227D01*
X0027976Y0290179D01*
X0028125Y0290128D01*
X0028273Y0290072D01*
X0028419Y0290013D01*
X0028564Y0289950D01*
X0028707Y0289883D01*
X0028848Y0289813D01*
X0028987Y0289740D01*
X0029125Y0289663D01*
X0029261Y0289582D01*
X0029394Y0289498D01*
X0029525Y0289411D01*
X0029654Y0289320D01*
X0029781Y0289226D01*
X0029906Y0289129D01*
X0030027Y0289029D01*
X0030147Y0288926D01*
X0030263Y0288820D01*
X0030377Y0288711D01*
X0030489Y0288599D01*
X0030597Y0288485D01*
X0030702Y0288367D01*
X0030805Y0288247D01*
X0030904Y0288125D01*
X0031000Y0288000D01*
X0031093Y0287872D01*
X0031183Y0287743D01*
X0031269Y0287611D01*
X0031353Y0287477D01*
X0031432Y0287341D01*
X0031509Y0287203D01*
X0031581Y0287063D01*
X0031650Y0286921D01*
X0031716Y0286778D01*
X0031778Y0286633D01*
X0031836Y0286486D01*
X0031891Y0286338D01*
X0031942Y0286189D01*
X0031989Y0286038D01*
X0032032Y0285887D01*
X0032071Y0285734D01*
X0032107Y0285580D01*
X0032138Y0285426D01*
X0032166Y0285271D01*
X0032190Y0285115D01*
X0032210Y0284958D01*
X0032226Y0284801D01*
X0032238Y0284644D01*
X0032246Y0284487D01*
X0032250Y0284329D01*
X0032250Y0284171D01*
X0032246Y0284013D01*
X0032238Y0283856D01*
X0032226Y0283699D01*
X0032210Y0283542D01*
X0032190Y0283385D01*
X0032166Y0283229D01*
X0032138Y0283074D01*
X0032107Y0282920D01*
X0032071Y0282766D01*
X0032032Y0282613D01*
X0031989Y0282462D01*
X0031942Y0282311D01*
X0031891Y0282162D01*
X0031836Y0282014D01*
X0031778Y0281867D01*
X0031716Y0281722D01*
X0031650Y0281579D01*
X0031581Y0281437D01*
X0031509Y0281297D01*
X0031432Y0281159D01*
X0031353Y0281023D01*
X0031269Y0280889D01*
X0031183Y0280757D01*
X0031093Y0280628D01*
X0031000Y0280500D01*
X0030904Y0280375D01*
X0030805Y0280253D01*
X0030702Y0280133D01*
X0030597Y0280015D01*
X0030489Y0279901D01*
X0030377Y0279789D01*
X0030263Y0279680D01*
X0030147Y0279574D01*
X0030027Y0279471D01*
X0029906Y0279371D01*
X0029781Y0279274D01*
X0029654Y0279180D01*
X0029525Y0279089D01*
X0029394Y0279002D01*
X0029261Y0278918D01*
X0029125Y0278837D01*
X0028987Y0278760D01*
X0028848Y0278687D01*
X0028707Y0278617D01*
X0028564Y0278550D01*
X0028419Y0278487D01*
X0028273Y0278428D01*
X0028125Y0278372D01*
X0027976Y0278321D01*
X0027826Y0278273D01*
X0027675Y0278229D01*
X0027522Y0278188D01*
X0027369Y0278152D01*
X0027214Y0278119D01*
X0027059Y0278090D01*
X0026904Y0278066D01*
X0026747Y0278045D01*
X0026591Y0278028D01*
X0026433Y0278015D01*
X0026276Y0278006D01*
X0026118Y0278001D01*
X0025961Y0278000D01*
X0025803Y0278003D01*
X0025645Y0278010D01*
X0025488Y0278021D01*
X0025331Y0278036D01*
X0025174Y0278055D01*
X0025018Y0278078D01*
X0024863Y0278104D01*
X0024708Y0278135D01*
X0024554Y0278169D01*
X0024401Y0278208D01*
X0024249Y0278250D01*
X0024099Y0278296D01*
X0023949Y0278346D01*
X0023801Y0278400D01*
X0023654Y0278457D01*
X0023508Y0278518D01*
X0023365Y0278583D01*
X0023222Y0278651D01*
X0023082Y0278723D01*
X0022944Y0278798D01*
X0022807Y0278877D01*
X0022672Y0278959D01*
X0022540Y0279045D01*
X0022410Y0279134D01*
X0022282Y0279226D01*
X0022156Y0279322D01*
X0022033Y0279420D01*
X0021913Y0279522D01*
X0021795Y0279627D01*
X0021679Y0279734D01*
X0021567Y0279845D01*
X0021457Y0279958D01*
X0021350Y0280074D01*
X0021246Y0280192D01*
X0021145Y0280314D01*
X0021048Y0280437D01*
X0020953Y0280564D01*
X0020862Y0280692D01*
X0020773Y0280823D01*
X0020689Y0280956D01*
X0020607Y0281091D01*
X0020529Y0281228D01*
X0020455Y0281367D01*
X0020384Y0281508D01*
X0020316Y0281650D01*
X0020253Y0281795D01*
X0020192Y0281940D01*
X0020136Y0282088D01*
X0020083Y0282236D01*
X0020034Y0282386D01*
X0019989Y0282537D01*
X0019948Y0282690D01*
X0019910Y0282843D01*
X0019877Y0282997D01*
X0019847Y0283152D01*
X0019821Y0283307D01*
X0019800Y0283464D01*
X0019782Y0283620D01*
X0019768Y0283777D01*
X0019758Y0283935D01*
X0019752Y0284092D01*
X0019750Y0284250D01*
X0008154Y0246543D02*
X0007346Y0244528D01*
X0006585Y0242494D01*
X0005872Y0240444D01*
X0005206Y0238378D01*
X0004588Y0236297D01*
X0004018Y0234202D01*
X0003496Y0232095D01*
X0003024Y0229976D01*
X0002600Y0227847D01*
X0002226Y0225708D01*
X0001901Y0223562D01*
X0001626Y0221409D01*
X0001401Y0219249D01*
X0001226Y0217086D01*
X0001100Y0214918D01*
X0001025Y0212749D01*
X0001000Y0210578D01*
X0063951Y0302197D02*
X0066062Y0303041D01*
X0068194Y0303834D01*
X0070344Y0304573D01*
X0072512Y0305260D01*
X0074696Y0305894D01*
X0076895Y0306473D01*
X0079108Y0306999D01*
X0081333Y0307470D01*
X0083568Y0307886D01*
X0085813Y0308247D01*
X0088067Y0308553D01*
X0090327Y0308804D01*
X0092593Y0308999D01*
X0094863Y0309138D01*
X0097135Y0309222D01*
X0099409Y0309250D01*
X0101814Y0309250D02*
X0104176Y0309221D01*
X0106536Y0309134D01*
X0108894Y0308989D01*
X0111247Y0308787D01*
X0113595Y0308526D01*
X0115935Y0308208D01*
X0118267Y0307833D01*
X0120589Y0307401D01*
X0122900Y0306912D01*
X0125198Y0306366D01*
X0127482Y0305764D01*
X0129751Y0305106D01*
X0132002Y0304393D01*
X0134236Y0303624D01*
X0136450Y0302801D01*
X0138643Y0301924D01*
X0201000Y0208641D02*
X0200972Y0206306D01*
X0200889Y0203973D01*
X0200750Y0201642D01*
X0200556Y0199315D01*
X0200306Y0196993D01*
X0200001Y0194678D01*
X0199642Y0192371D01*
X0199227Y0190073D01*
X0198758Y0187785D01*
X0198234Y0185510D01*
X0197657Y0183247D01*
X0197026Y0180999D01*
X0196341Y0178766D01*
X0195604Y0176551D01*
X0194814Y0174353D01*
X0193972Y0172175D01*
X0193078Y0170018D01*
X0192134Y0167883D01*
X0191138Y0165770D01*
X0190093Y0163682D01*
X0188998Y0161619D01*
X0187855Y0159584D01*
X0186664Y0157575D01*
X0185425Y0155596D01*
X0184139Y0153647D01*
X0182807Y0151729D01*
X0181430Y0149843D01*
X0180009Y0147990D01*
X0178543Y0146172D01*
X0177035Y0144389D01*
X0175485Y0142643D01*
X0173894Y0140934D01*
X0172263Y0139263D01*
D11*
X0167637Y0154655D03*
X0173514Y0162746D03*
X0181246Y0177919D03*
X0184336Y0187430D03*
X0187000Y0204250D03*
X0187000Y0214250D03*
X0184336Y0231070D03*
X0181246Y0240581D03*
X0173514Y0255754D03*
X0167637Y0263845D03*
X0155595Y0275887D03*
X0147504Y0281764D03*
X0132331Y0289496D03*
X0122820Y0292586D03*
X0106000Y0295250D03*
X0096000Y0295250D03*
X0079180Y0292586D03*
X0069669Y0289496D03*
X0054496Y0281764D03*
X0046405Y0275887D03*
X0034363Y0263845D03*
X0028486Y0255754D03*
X0020754Y0240581D03*
X0017664Y0231070D03*
X0015000Y0214250D03*
X0015000Y0204250D03*
X0017664Y0187430D03*
X0020754Y0177919D03*
X0028486Y0162746D03*
X0034363Y0154655D03*
X0046405Y0142613D03*
X0054496Y0136736D03*
X0069669Y0129004D03*
X0079180Y0125914D03*
X0088200Y0105650D03*
X0096000Y0123250D03*
X0106000Y0123250D03*
X0113800Y0105650D03*
X0113800Y0087850D03*
X0122820Y0125914D03*
X0132331Y0129004D03*
X0147504Y0136736D03*
X0155595Y0142613D03*
X0088200Y0087850D03*
D12*
X0051000Y0105500D03*
D13*
X0051000Y0095500D03*
X0051000Y0085500D03*
X0061000Y0085500D03*
X0061000Y0095500D03*
X0061000Y0105500D03*
D14*
X0131000Y0109250D03*
X0131000Y0099250D03*
X0131000Y0089250D03*
X0131000Y0079250D03*
X0161000Y0079250D03*
X0161000Y0089250D03*
X0161000Y0099250D03*
X0161000Y0109250D03*
D15*
X0143000Y0039250D03*
X0059000Y0039250D03*
D16*
X0043500Y0054750D01*
X0043500Y0110500D01*
X0046000Y0113000D01*
X0057250Y0113000D01*
X0061000Y0109250D01*
X0061000Y0105500D01*
X0096000Y0111750D02*
X0096000Y0123250D01*
X0096000Y0111750D02*
X0111000Y0096750D01*
X0123500Y0096750D01*
X0131000Y0089250D01*
X0131000Y0099250D02*
X0122820Y0107430D01*
X0122820Y0125914D01*
X0141000Y0140500D02*
X0141000Y0099250D01*
X0161000Y0079250D01*
X0161000Y0089250D02*
X0147504Y0102746D01*
X0147504Y0136736D01*
X0153500Y0128000D02*
X0164750Y0139250D01*
X0181000Y0159250D01*
X0181000Y0166750D01*
X0168500Y0179250D01*
X0168500Y0250740D01*
X0173514Y0255754D01*
X0166792Y0155500D02*
X0156000Y0155500D01*
X0141000Y0140500D01*
X0153500Y0128000D02*
X0153500Y0106750D01*
X0161000Y0099250D01*
X0167250Y0103000D02*
X0167250Y0063500D01*
X0143000Y0039250D01*
X0059000Y0039250D01*
X0161000Y0109250D02*
X0167250Y0103000D01*
X0167637Y0154655D02*
X0166792Y0155500D01*
D17*
X0173514Y0162746D02*
X0132331Y0203929D01*
X0132331Y0289496D01*
X0030999Y0274250D02*
X0032612Y0275941D01*
X0034265Y0277592D01*
X0035959Y0279202D01*
X0037691Y0280770D01*
X0039462Y0282295D01*
X0041269Y0283776D01*
X0043112Y0285213D01*
X0044990Y0286604D01*
X0046901Y0287948D01*
X0048845Y0289245D01*
X0050820Y0290494D01*
X0052825Y0291694D01*
X0054859Y0292844D01*
X0056921Y0293944D01*
X0059008Y0294994D01*
X0061121Y0295991D01*
X0063258Y0296937D01*
X0065418Y0297830D01*
X0067598Y0298669D01*
X0069799Y0299455D01*
X0072018Y0300187D01*
X0074255Y0300864D01*
X0076507Y0301486D01*
X0078774Y0302052D01*
X0081054Y0302563D01*
X0083346Y0303018D01*
X0085649Y0303416D01*
X0087961Y0303758D01*
X0090280Y0304042D01*
X0092605Y0304270D01*
X0094936Y0304441D01*
X0097270Y0304554D01*
X0099606Y0304610D01*
X0101943Y0304609D01*
X0104279Y0304551D01*
X0106612Y0304435D01*
X0108943Y0304262D01*
X0111268Y0304032D01*
X0113587Y0303745D01*
X0115898Y0303401D01*
X0118201Y0303000D01*
X0120492Y0302543D01*
X0122772Y0302030D01*
X0125038Y0301461D01*
X0127290Y0300837D01*
X0129526Y0300158D01*
X0131744Y0299424D01*
X0133944Y0298636D01*
X0136124Y0297794D01*
X0138282Y0296899D01*
X0140418Y0295951D01*
X0142530Y0294951D01*
X0144617Y0293900D01*
X0146678Y0292797D01*
X0148710Y0291645D01*
X0150714Y0290443D01*
X0152688Y0289192D01*
X0154630Y0287893D01*
X0156540Y0286547D01*
X0158417Y0285154D01*
X0160258Y0283716D01*
X0162064Y0282233D01*
X0163833Y0280706D01*
X0165564Y0279137D01*
X0167256Y0277525D01*
X0168908Y0275872D01*
X0170518Y0274179D01*
X0172087Y0272447D01*
X0173613Y0270677D01*
X0175095Y0268871D01*
X0176532Y0267028D01*
X0177923Y0265151D01*
X0179268Y0263240D01*
X0180566Y0261297D01*
X0181816Y0259322D01*
X0183017Y0257318D01*
X0184168Y0255285D01*
X0185269Y0253223D01*
X0186319Y0251136D01*
X0187318Y0249023D01*
X0188264Y0246887D01*
X0189158Y0244728D01*
X0189999Y0242548D01*
X0190786Y0240347D01*
X0191518Y0238129D01*
X0192196Y0235892D01*
X0192819Y0233640D01*
X0193386Y0231373D01*
X0193898Y0229093D01*
X0194354Y0226801D01*
X0194753Y0224499D01*
X0195095Y0222188D01*
X0195381Y0219868D01*
X0195610Y0217543D01*
X0195781Y0215213D01*
X0195896Y0212879D01*
X0195953Y0210543D01*
X0195953Y0208206D01*
X0195895Y0205870D01*
X0195780Y0203536D01*
X0195608Y0201206D01*
X0195379Y0198880D01*
X0195093Y0196561D01*
X0194750Y0194250D01*
X0184336Y0187430D01*
X0071000Y0288165D02*
X0069669Y0289496D01*
X0031000Y0274250D02*
X0034363Y0263845D01*
X0020754Y0240581D02*
X0028486Y0232849D01*
X0028486Y0162746D01*
D18*
X0074750Y0096750D03*
D19*
X0068500Y0096750D01*
X0064750Y0100500D01*
X0056000Y0100500D01*
X0051000Y0105500D01*
M02*
